<?xml version="1.0" encoding="utf-8"?>
<!-- Generator: Adobe Illustrator 18.0.0, SVG Export Plug-In . SVG Version: 6.00 Build 0)  -->
<!DOCTYPE svg PUBLIC "-//W3C//DTD SVG 1.1//EN" "http://www.w3.org/Graphics/SVG/1.1/DTD/svg11.dtd">
<svg xmlns="http://www.w3.org/2000/svg" xmlns:xlink="http://www.w3.org/1999/xlink" version="1.1" id="Слой_2" x="0px" y="0px" viewBox="0 146 1590 968" enable-background="new 0 146 1590 968" xml:space="preserve">
<path fill="#4EDD69" stroke="" stroke-width="2" stroke-miterlimit="10" d="M939.2,739c1.2,1.6,2.9,3.3,2.9,5.3  c-4,1.2-8.5-3.8-11.3-6c-0.7,6.1,4,11.9,2.8,17.5c-1.1-0.3-2.7,0.4-3.6,0.3c-0.8,3.8,2.9,10.7,4.2,14.4c1.9,5,6,10.9,7,16  c-1.3-0.1-3,0.4-4.4,0.3c-0.4,2.3,1.1,4.2,1.9,6.2c-0.7,0-1.7,0.8-2.6,0.7c-1.1,4.4,2.4,9.7,3.7,13.6c-1.1-0.3-2.6,0.4-3.7,0.3  c-1.6,6.1,10.3,16.7,13.6,21.2c-1.3-0.1-2.3,0.3-3.7-0.3c6,7.2,43.7,20.4,62.1,23.2c18.4,2.6,92.2,24.1,152.9,61.1  c60.7,36.8,129.1,56.8,180.5,75.3s127.5,40.7,181.3,66.1c53.8,25.3,62.9,50.7,62.9,50.7s-15.4-2.3-36.8-20  c-21.5-17.6-79.1-31.5-126-36.8c-46.9-5.4-163.6-21.5-221.3-35.4c-57.6-13.8-79.1-35.4-188.2-38.3c-109-2.9-245.3-26.5-246.3-27.3  c-4.9-3.4-15.4,0.7-21.6,0.1c0-2.5,1.7-4.9,2.1-7.6c-4.1,1.7-10.6,4.2-15.1,4.4c0.1-0.8-0.4-2.1-0.3-2.9c-3,0.9-6.5,4.2-9.8,3.7  c-0.1-1.9,0.9-3.4,1.3-5.2c-3.6,0.3-10.6,9-13.5,11.5c-4.8,4.2-9.5,9.5-16.2,9.7c0.9-2.9,3.3-5.6,3-8.9c-4.8,4.6-7.7,14.2-14.6,16.6  c1.7-3.6,3.4-6.1,2.9-10.3c-2.5,1.3-4.4,3.6-6.6,5c-0.9-1.3-1.5-2.8-1.9-4.4c-3.4,2.3-6.8,7.8-11.3,7.4c-0.5-2-0.9-3.6-0.8-5.7  c-9,5.3-14,12.7-25.4,13.5c-11.5,0.8-22.5-2.3-33.8-3c-10.9-0.8-21.7-0.5-32.3-2.4c-11.1-1.9-21.9-5.6-33-7.7  c-6-1.1-12.1-2.9-18.4-3.8c-6.9-1.1-14-1.3-20.8-3c-6-1.5-11.3-2.5-17.6-3c-6.5-0.7-11.7-1.6-17.6-3c-5.6-1.3-10.7,2.4-16.2,3.8  c-5.2,1.3-9.7,3.6-14.8,6c-4.1,2-11.8,4.9-14.4-0.5c-1.2-2.4,0.7-6.5,0.3-8.6c-0.5-2.7-2.5-4.5-2.7-7.4c-9.4-0.8-36.7-1.2-29.3-18  c4.5-10.1,19.3-18,28.6-22.8c2.3-1.2,4.5-2.4,6.9-3c4.2-1.3,2.8-0.4,5.6-3.7c3.4-4,8.7-6.6,13.6-7.2c12.7-1.3,24.1,2.7,37,1.6  c12.3-1.1,24-3,36.3-0.9c11.5,2,23.5,4.4,34.5,9c-4.2-3.3-4.8-8.9-6.1-13.5c-1.5-5.4-3.7-10.2-4.9-15.4c-2.9-11.5-6.2-21.7-9.9-33  c-4.8,2.4-5.3-5.3-6.8-7.8c-0.5-0.9,0-4.5-2.5-2.5c-0.9,0.8-0.8,3.6-0.7,4.6c-3.8-3.3-9.5-12.2-9.3-17.4c-1.7,1.1-1.6,3.2-1.6,5.2  c-8-2.8-4.9-16.3-12.2-19.9c-0.3,0.7-1.1,1.3-1.3,2c-2.1-3.8-7.9-11.9-12.3-12.7c-0.7,2-1.3,4.2-0.9,6.5c-3.3-3-4.4-9-6-13  c-2.1-5.3-4.6-8.3-8.5-12.3c-3.2-3.3-5.4-6.8-9.4-9c-4.2-2.5-8.7-3.3-12.3-7c-2.5,2-1.6,6.9-1.5,9.8c-1.2-3.3-1.7-6-4.4-8.3  c-2.1-1.9-5.4-3.2-7.7-5.3c-2.5-2.3-4.4-4.9-7.3-6.5c-2.8-1.6-5.7-2.7-8.1-4.8c-0.8,2.9,1.2,5.4,0.4,8.3c-1.6-2.8-5.3-10.5-8.1-12.2  c0.7,3.2,3.7,6,2.9,9.7c-1.1-4.6-11.1-12.7-16-11.1c0.9,2.4,2,4.8,1.3,7.3c-0.7-0.8-2.1-1.3-2.8-2c-0.3,2.4-0.1,4.9-0.1,7.3  c-0.8-1.1-2.3-1.9-3-2.8c1.9,4.4,3.4,12.9,1.2,17.4c-2.6-4-5.3-14-11.3-14.3c0.3,2,1.5,4.8,2.8,6.5c-2.6-4.4-12.2-6.4-16.7-6.5  c-0.9,2.1-2.8,3.6-3.2,6c-0.3,2,0.5,4,0.8,5.8c-5.6-4.5-13.9-4.9-17.8-12.5c-2.4,4.5-3.8,10.2-6,15.1c-4,9.3-8.2,24.4-4.8,34.6  c0.8,2.3,1.9,5,3.8,6.8c2.8,2.4,5.3,1.5,3.3,5c-2.1,3.7-12.7,6.1-16.6,8.1c-11.1,5.7-20.7,13.8-29,23.2c-8.1,9.3-11.4,22-21.6,29.4  c-5.3,4-10.7,4-16.8,5.3c-5.7,1.3-11.5,3.4-17.6,2.9c-6.2-0.5-12.3-1.7-18.4-2.4c-7.2-0.7-11.7,1.1-17.9,3.7  c-10.9,4.8-22,7.4-34.4,6.4c-8.3-0.7-26.8-4-27-15.2c-4.9,2.3-11.5,1.2-16.8,2.4c-5,1.2-10.7,3.2-16.2,2.1c-4.4-0.8-9.3-6-7.2-10.7  c1.5-3.3,7-6.1,9.9-7.7c-2.9-1.1-6.6-0.5-6.6-4.6c0-3,3.3-5.7,5.4-7.4c5.3-4.4,11.7-4.8,18.4-4.8c13.1,0,25.6-2.1,38.4-3  c11.7-0.9,24.6-2.9,35.1-7c9.8-4,20.8-6.2,30.3-11.9c5.8-3.4,5.8-8,7.3-14c1.2-5,4.5-12.3,3.2-17.5c-8.3,0.8-14,0.4-20.8-5.3  c-3-2.6-4.2-4.4-8.2-4.8c-4.8-0.4-7.8-0.9-12.3-2.5c-5-1.9-19.1-4.5-14.8-13c2.9-6,16.6-8.1,22.3-9c-3.4-1.2-8.6-4-8.2-8.5  c0.4-4,6.4-6,9.9-6.1c5.3-0.1,10.2,1.9,15.4,1.3c4.2-0.4,8.5-2.5,12.3-4.5c0.5,0-0.8-4.5-0.8-4.5c-4.6-7.2-3-20.4-6.8-29.4  c-2.1-5.2-1.9-9.9-4.6-14.6c-0.9-1.6-2-0.9-2.5-2.9c-0.3-1.1,1.1-3.2,0.8-4.6c-0.5-3.2-1.7-4.4-5.3-4c2.3-2.1,1.6-6,1.3-9  c-2.1,0-6.4,0.3-7.8-1.5c-2.9-3.3,0.9-3.4,2.4-6.4c3.4-7.3-2.1-9-7.4-8.6c0.7-3,2.8-15.1-3-14.6c1.1-1.6,0.8-3.4-0.3-5  c-2.9-0.7-4.1,1.9-6.6,2.1c-0.5-4.9,0.9-11-2.3-15.2c-3.7-5-5.7,1.3-10.9,0.7c0.9-2.1,1.3-6.8,0.7-9.1c-1.2-4.2-2-2.6-6.1-1.6  c2-2.3,2.9-9.4-1.5-9.3c0.7-2,0.9-4.4,0.5-6.6c-4.6,2.9-5-1.5-5.8-5.7c-0.8-4.2-2.1-8.5-3-12.6c-2.7,2.1-6.5,3.7-9.9,3.6  c2.9-1.3,6-7,5-10.6c-2.4-0.7-4.5,0.7-6.8,0.5c1.2-2.7,3.8-4.2,4.5-7.4c-2-0.1-4,0-6-0.3c1.5-6.6,2.6-13.1,2.1-20.5  c-1.7-0.4-3.2,0.1-4.4,1.3c-0.4-3.2-0.3-6.5-0.1-9.7c-2.4,1.7-5.7,3.7-8.3,4.8c2.3-3.3,7.8-14.2-0.5-8.9c1.9-3.2,4.4-6.6,3.4-10.6  c-2.5,3.6-8.1,5.2-11.8,5.8c2.6-3.6,6-25.2-0.9-23.8c-0.1-2.8,2.1-5.2,1.3-8.2c-1.5,0.4-3,1.5-4.2,2.1c-0.5-4.2,2.9-17.8,0.7-19.2  c-2.6-1.6-7,2.3-6.4-2.4c0.5-3.4,5-3.7,4-8.2c-0.5,0.1-0.9,0.1-1.5,0.4c0-2.9,1.3-6.1,0.7-8.9c-2.6-0.4-4.2,2.1-5.3,4.2  c-0.3-3,0.8-6.4,2.4-8.6c-1.5,0.5-2.8,0.4-4.4,0.5c1.9-3,4.1-5.8,3.6-9.8c-0.7,0.4-1.7,0.7-2.3,1.2c1.1-1.2,1.5-2.8,1.3-4.4  c-0.7,0.3-1.9,0.3-2.7,0.8c1.7-3.4,2.7-6.2,3.4-9.9c-1.6,1.7-3.2,4.1-6,3.6c0.4-0.5,0.4-1.3,0.5-1.9c-1.5,0.5-2.7,0.4-4.2,0.5  c3.2-2.1,4.4-7,4.4-10.5c-2.1,1.2-4.5,2.9-6.9,2.6c1.2-1.7,2.9-3.7,2.9-6c-1.5,1.3-3.7,1.9-5.7,1.5c1.2-2.1,4-2.8,4.2-5.3  c-1.6,0.7-3.3,1.6-5,2.3c2.1-1.7,5.3-4.8,5-7.7c-1.6,0.7-3.3,0.9-5,0.8c2.4-4,4.9-5.3,4.2-10.7c-1.3,0.7-2.1,0-3,2  c0.7-2.4,1.7-4,1.5-6.6c-0.5,0.4-2.1,0.5-2.8,1.3c0.3-5.4,1.2-8.9-3.2-13l-6.9-2.3c-3.7-3.4-9.5-2.9-14.6-3.8  c-5.2-0.9-11.3-2.5-16.2-4.6c-8.9-3.8-16.8-8.5-25.2-13.2c-16.4-9.3-35.1-29.3-28-49.6c-9.7-3.4-17-18.6-17.6-27.8  c-0.7-11.3,2.7-21.5,10.2-29.8c7.3-8.1,17.6-16.4,27.4-20.1c6.9-2.7,8.9-3.8,12.6-10.6c2.5-4.6,5-9,8.2-13.2  c6.1-8.2,14-15.2,22.1-20.9c8.7-6.1,18.6-7.9,27.7-12.7c0.1,0.4,0.1,0.9,0.3,1.3c2.9,0.4,6.4-1.9,9-2.9c0,0.7,0.3,1.5,0.3,2.1  c4.4,0.7,12.5-2.7,16.8-3.7c6.5-1.7,12.5-1.6,19.2-1.6c12.3,0,23.5-3,36-3c12.9,0,25,1.6,37.6,1.6c6.2,0,10.2,2.5,15.5,5.2  c6.2,3.2,12.5,3.2,18.8,5c3.4,0.9,11.4,5.3,13.1,8.1c-1.9,0.3-3.8,0.1-5.8,0.1c5,2.9,12.5,3.8,18.2,6.2c6.2,2.5,12.1,7.6,17.8,11.4  c4.6,3.2,8.3,7,12.5,10.7c4.1,3.8,9.7,6,13.4,10.2c-1.6-0.1-3.3-0.1-4.9,0.1c12.5,9.5,25.2,20.8,34.1,33.8c-2-1.6-4.6-2-6.6-3.7  c0,3.7,4.1,8.7,5.3,12.2c1.3,4,4.4,8,5.4,12.1c-0.5-0.1-0.8-0.4-1.3-0.5c0.5,4.5,7.6,9,9.5,13.6c-1.6,0-3.4,0-5,0.3  c4.5,5,7.2,11.9,9,18.2c-1.9,0-3.3-0.5-5-1.3c4,5,4.1,11.1,6.1,16.8c1.2,3.3,1.2,6.5,2.1,10.1c0.9,3.3,3,6.6,3.7,9.7  c-1.9-1.1-3.6-2-5.3-3.3c2.3,3,4.1,9.3,4.6,12.7c-1.6,0.1-3,0-4.4-0.5c3.4,4.1,4.6,9.5,8.1,13.8c-1.3-1.1-1.9-0.5-3.4-0.8  c0.7,3.8,7.8,10.3,10.5,13.1c3.6,3.8,7.6,7,12.3,9.1c5.2,2.4,11.5,2.4,17.1,2.9c6.1,0.5,11.7,0.9,17.6,1.5  c12.7,1.2,25.7,0.8,38.4,0.8c12.9,0,25.3,0.3,37.8-1.3c8.5-1.1,18.3-4.2,26.6-3c-1.2,0.8-3,2.3-4.2,3.7c2.5,0.9,7,0.9,8.9,2.1  c-0.4,0.1-0.8,0.3-1.2,0.1c5.2,0,10.1-0.3,15.1-0.8c6-0.5,9.8-4,15.2-5.8c-2.5,3-6.8,4.9-8.9,8c5.7-0.5,11.3,0.9,17.4-0.7  c6.1-1.6,10.1-6.1,15.5-8.9c-0.8,3-2.5,7-4.4,9.7c2.4-0.1,4.9-0.1,7.3,0.1c-0.7,0.7-1.3,2.1-2,2.8c7.6-0.9,15.6-2.9,24-2.9  c-2.3,0.9-5.3,3.2-6.6,5.3c4.5,1.9,14.6,2.8,19.1,1.1c-0.5,0.7-0.8,2-1.3,2.8c7,0.4,13.8,3.4,20.5,3.4c-1.6,2.4-4.4,4-6.5,6  c7.6,3.3,15.8-0.4,23.5,0.1c-1.5,3.2-4.1,4.4-6.5,6.8c1.9,2.1,4.8,1.6,7.3,1.7c-1.5,1.3-2.8,2.9-2.1,5.2c9.3-0.1,19.1,5.7,28.4,7  c10.1,1.5,20.8,2.3,30.6,1.7c-0.8,1.6-1.9,3.6-2.9,5c1.5,0,3-0.1,4.4-0.4c0,0.3-0.1,0.5-0.4,0.7c4.2-0.1,8.6-1.3,12.7-0.7  c-1.2,2.1-5.2,5.2-7.6,6.2c6,2.7,15.6-0.3,22,2.9c-3.6,2.6-12.6,5.3-14.3,8.2c10.3,6.4,18,11.7,29.8,13.4c-2.3,0.9-6.1,1.1-8.2,3  c4.4,7.4,12.9,10.7,18.2,17.6c3.2,4.2,5.3,8.7,8.9,12.9c4.2,4.9,8.3,9.9,13,14.4c8,7.7,15.5,12.6,25.4,16.8  c7.2,3,20.5,7.3,24.2,14.7c-3.2-1.2-7-2.8-10.6-2c2.4,1.5,5.2,2.8,7.3,5.2c-3.4,2.9,4.8,5.2,7,6.4c3.6,1.9,10.1,4.1,12.2,7.3  c-2.3,0.8-4.1,1.2-6.4,1.6c4.9,3.7,11.9,4.1,16,8.5c-2,2.4-9,3.4-12.3,3.2c-0.8,4,12.1,9.9,15.1,12.3c4.9,4,13.1,11.4,14.7,17.4  c-3.7-0.8-8.1-0.9-12.1-0.5c3.2,4,9,9.9,14.4,10.1c-2.7,1.6-7.3,0.1-10.5-0.3c3.8,3.6,5.8,7.3,7.9,11.8c2.3,4.6,6.2,9.4,7.6,14.3  c-1.5-1.7-3.6-3-5.7-3.7c4.6,6.5,3.3,16.4,8.1,23.9c2.8,4.4,6.5,7.8,8.6,12.6c1.7,4,0.9,9.7,4,13.1c-1.7-1.7-3.4-3.7-5.3-5  c0,2.4,2.6,6.6,3.6,9c-1.5-0.5-2.9-1.5-4.4-2.1c0.4,2.9,2.3,6.2,2.8,9.3c0.7,4,1.5,7.4,2.5,11.4c0.9,3.2,1.6,7.3,3,9.9  c2,3.6,6.4,6.5,6.9,10.7L939.2,739z"/>
</svg>
